<svg width="47" height="47" viewBox="0 0 47 47" fill="none" xmlns="http://www.w3.org/2000/svg">
<path fill-rule="evenodd" clip-rule="evenodd" d="M45.7559 8.84706C45.0647 7.05 44.0971 5.52941 42.7147 4.28529C41.3324 3.04118 39.95 1.93529 38.1529 1.24412C36.3559 0.552941 34.5588 0.138235 32.2088 0.138235C29.8588 0 29.1676 0 23.5 0C17.8324 0 17.1412 0 14.7912 0.138235C12.4412 0.276471 10.6441 0.552941 8.84706 1.24412C7.05 1.93529 5.52941 2.90294 4.28529 4.28529C3.04118 5.66765 1.93529 7.05 1.24412 8.84706C0.552941 10.6441 0.138235 12.4412 0.138235 14.7912C0 17.1412 0 17.8324 0 23.5C0 29.1676 0 29.8588 0.138235 32.2088C0.276471 34.5588 0.552941 36.3559 1.24412 38.1529C1.93529 39.95 2.90294 41.4706 4.28529 42.7147C5.66765 43.9588 7.05 45.0647 8.84706 45.7559C10.6441 46.4471 12.4412 46.8618 14.7912 46.8618C17.1412 47 17.8324 47 23.5 47C29.1676 47 29.8588 47 32.2088 46.8618C34.5588 46.7235 36.3559 46.4471 38.1529 45.7559C39.95 45.0647 41.4706 44.0971 42.7147 42.7147C43.9588 41.3324 45.0647 39.95 45.7559 38.1529C46.4471 36.3559 46.8618 34.5588 46.8618 32.2088C47 29.8588 47 29.1676 47 23.5C47 17.8324 47 17.1412 46.8618 14.7912C46.7235 12.4412 46.4471 10.6441 45.7559 8.84706ZM41.3322 31.9323C41.194 34.144 40.9175 35.2499 40.5028 36.0793C40.0881 37.1852 39.5352 38.0146 38.7058 38.844C37.8764 39.6734 37.0469 40.2264 35.9411 40.6411C35.916 40.6494 35.8907 40.6579 35.8651 40.6665C35.8357 40.6764 35.8059 40.6864 35.7757 40.6966C34.9633 40.9703 33.862 41.3413 31.794 41.4705H23.4999C17.9705 41.4705 17.2793 41.4705 15.0675 41.3323C12.8558 41.194 11.7499 40.9176 10.9205 40.5029C9.81459 40.0882 8.98518 39.5352 8.15577 38.7058C7.32636 37.8764 6.77341 37.047 6.35871 35.9411C6.34076 35.8872 6.32223 35.8322 6.30323 35.7758L6.30318 35.7757C6.02951 34.9633 5.65855 33.8621 5.5293 31.794V23.4999C5.5293 17.9705 5.5293 17.2793 5.66753 15.0676C5.80577 12.8558 6.08224 11.7499 6.49694 10.9205C6.91165 9.81462 7.46459 8.98521 8.294 8.1558C9.12341 7.32639 9.95283 6.77345 11.0587 6.35874C11.1126 6.34077 11.1677 6.32223 11.2241 6.30321C12.0365 6.02954 13.1377 5.65858 15.2058 5.52933H23.4999C29.0293 5.52933 29.7205 5.52933 31.9322 5.66756C34.144 5.8058 35.2499 6.08227 36.0793 6.49697C37.1852 6.91168 38.0146 7.46462 38.844 8.29403C39.6734 9.12345 40.2264 9.95286 40.6411 11.0587C40.659 11.1126 40.6776 11.1677 40.6966 11.2242C40.9703 12.0365 41.3412 13.1378 41.4705 15.2058V23.4999C41.4705 29.0293 41.4705 29.7205 41.3322 31.9323ZM35.2502 14.3765C36.7008 14.3765 37.8767 13.2005 37.8767 11.75C37.8767 10.2994 36.7008 9.12351 35.2502 9.12351C33.7997 9.12351 32.6238 10.2994 32.6238 11.75C32.6238 13.2005 33.7997 14.3765 35.2502 14.3765ZM11.3354 23.4999C11.3354 16.7264 16.7266 11.3352 23.5002 11.3352C30.2737 11.3352 35.6649 16.7264 35.6649 23.4999C35.6649 30.2735 30.2737 35.6647 23.5002 35.6647C16.7266 35.6647 11.3354 30.2735 11.3354 23.4999ZM16.8647 23.4999C16.8647 27.094 19.9059 30.1352 23.5 30.1352C27.0942 30.1352 30.1353 27.094 30.1353 23.4999C30.1353 19.9058 27.0942 16.8646 23.5 16.8646C19.9059 16.8646 16.8647 19.9058 16.8647 23.4999Z" fill="#D8C3FE"/>
</svg>
