<svg width="47" height="46" viewBox="0 0 47 46" fill="none" xmlns="http://www.w3.org/2000/svg">
<path d="M23.5 0C10.5211 0 0 10.2973 0 23C0 35.7027 10.5211 46 23.5 46C36.4789 46 47 35.7027 47 23C47 10.2973 36.4789 0 23.5 0ZM17.7474 32.533H12.9886V17.5447H17.7474V32.533ZM15.3386 15.7047C13.8356 15.7047 12.8638 14.6625 12.8638 13.3735C12.8638 12.0582 13.865 11.0472 15.3998 11.0472C16.9347 11.0472 17.8747 12.0582 17.9041 13.3735C17.9041 14.6625 16.9347 15.7047 15.3386 15.7047ZM35.1276 32.533H30.3689V24.2267C30.3689 22.2932 29.6785 20.9803 27.9577 20.9803C26.6431 20.9803 25.8622 21.8692 25.5171 22.7245C25.3898 23.0288 25.358 23.46 25.358 23.8889V32.5306H20.5968V22.3244C20.5968 20.4532 20.5356 18.8888 20.4719 17.5423H24.6065L24.8243 19.6243H24.9198C25.5465 18.6468 27.0813 17.2045 29.6492 17.2045C32.7801 17.2045 35.1276 19.2577 35.1276 23.6708V32.533Z" fill="#B6B4BC"/>
</svg>
