<svg width="185" height="185" viewBox="0 0 185 185" fill="none" xmlns="http://www.w3.org/2000/svg">
<path d="M30.8331 145.109L24.4737 142.026C20.4911 140.356 17.7932 137.499 16.38 133.454C14.9668 129.41 15.1595 125.394 16.9581 121.406L30.8331 91.3438V145.109ZM61.6664 161.875C57.4269 161.875 53.7988 160.333 50.7823 157.25C47.7657 154.167 46.2549 150.505 46.2498 146.266V100.208L66.8696 156.865C67.255 157.764 67.5762 158.632 67.8331 159.47C68.09 160.308 68.5397 161.109 69.1821 161.875H61.6664ZM101.364 160.911C97.3817 162.325 93.3991 162.132 89.4164 160.333C85.4338 158.535 82.7359 155.644 81.3227 151.661L47.2133 57.4271C45.8001 53.4445 45.9928 49.4927 47.7914 45.5717C49.59 41.6507 52.4807 38.9862 56.4633 37.5781L114.469 16.3802C118.451 14.967 122.403 15.1597 126.324 16.9583C130.245 18.757 132.909 21.6476 134.317 25.6302L168.62 119.865C170.033 123.847 169.84 127.799 168.041 131.72C166.243 135.641 163.352 138.306 159.37 139.714L101.364 160.911Z" fill="black"/>
</svg>
