<svg width="185" height="185" viewBox="0 0 185 185" fill="none" xmlns="http://www.w3.org/2000/svg">
<path fill-rule="evenodd" clip-rule="evenodd" d="M20.2344 11.5625C17.9345 11.5625 15.7287 12.4761 14.1024 14.1024C12.4761 15.7287 11.5625 17.9345 11.5625 20.2344C11.5625 22.5343 12.4761 24.74 14.1024 26.3663C15.7287 27.9926 17.9345 28.9062 20.2344 28.9062H118.516C120.816 28.9062 123.021 27.9926 124.648 26.3663C126.274 24.74 127.188 22.5343 127.188 20.2344C127.188 17.9345 126.274 15.7287 124.648 14.1024C123.021 12.4761 120.816 11.5625 118.516 11.5625H20.2344ZM11.5625 54.9219C11.5625 52.622 12.4761 50.4162 14.1024 48.7899C15.7287 47.1636 17.9345 46.25 20.2344 46.25H80.9375C83.2374 46.25 85.4432 47.1636 87.0694 48.7899C88.6957 50.4162 89.6094 52.622 89.6094 54.9219C89.6094 57.2218 88.6957 59.4275 87.0694 61.0538C85.4432 62.6801 83.2374 63.5938 80.9375 63.5938H20.2344C17.9345 63.5938 15.7287 62.6801 14.1024 61.0538C12.4761 59.4275 11.5625 57.2218 11.5625 54.9219ZM115.625 144.531C123.291 144.531 130.644 141.486 136.065 136.065C141.486 130.644 144.531 123.291 144.531 115.625C144.531 107.959 141.486 100.606 136.065 95.1852C130.644 89.7642 123.291 86.7188 115.625 86.7188C107.959 86.7188 100.606 89.7642 95.1852 95.1852C89.7642 100.606 86.7188 107.959 86.7188 115.625C86.7188 123.291 89.7642 130.644 95.1852 136.065C100.606 141.486 107.959 144.531 115.625 144.531ZM115.625 161.875C125.268 161.875 134.206 158.927 141.618 153.885L158.637 170.894C159.431 171.746 160.389 172.429 161.453 172.903C162.516 173.377 163.665 173.632 164.829 173.652C165.993 173.673 167.15 173.459 168.23 173.023C169.31 172.587 170.29 171.937 171.114 171.114C171.937 170.29 172.587 169.31 173.023 168.23C173.459 167.15 173.673 165.993 173.652 164.829C173.632 163.665 173.377 162.516 172.903 161.453C172.429 160.389 171.746 159.431 170.894 158.637L153.885 141.618C159.688 133.077 162.467 122.839 161.777 112.536C161.087 102.233 156.97 92.4576 150.08 84.7662C143.19 77.0748 133.925 71.9102 123.76 70.0951C113.595 68.28 103.114 69.9189 93.9887 74.7507C84.863 79.5825 77.6166 87.3292 73.404 96.7568C69.1914 106.184 68.2549 116.751 70.7436 126.772C73.2324 136.794 79.0032 145.694 87.1368 152.056C95.2705 158.417 105.299 161.874 115.625 161.875ZM20.2344 80.9375C17.9345 80.9375 15.7287 81.8511 14.1024 83.4774C12.4761 85.1037 11.5625 87.3094 11.5625 89.6094C11.5625 91.9093 12.4761 94.115 14.1024 95.7413C15.7287 97.3676 17.9345 98.2812 20.2344 98.2812H46.25C48.5499 98.2812 50.7556 97.3676 52.3819 95.7413C54.0082 94.115 54.9219 91.9093 54.9219 89.6094C54.9219 87.3094 54.0082 85.1037 52.3819 83.4774C50.7556 81.8511 48.5499 80.9375 46.25 80.9375H20.2344Z" fill="black"/>
</svg>
