<svg width="185" height="185" viewBox="0 0 185 185" fill="none" xmlns="http://www.w3.org/2000/svg">
<path d="M75.7106 17.2512C69.7767 30.1323 67.9331 44.5226 70.4282 58.4836C72.9233 72.4446 79.6373 85.3055 89.6656 95.3338C99.6939 105.362 112.555 112.076 126.516 114.571C140.477 117.066 154.867 115.223 167.748 109.289C160.086 143.791 129.307 169.583 92.4993 169.583C49.9262 169.583 15.416 135.073 15.416 92.5C15.416 55.6927 41.2081 24.9133 75.7106 17.2512ZM140.014 17.6598L146.458 19.2708V26.9792L140.014 28.5902C137.303 29.268 134.828 30.6696 132.853 32.645C130.877 34.6205 129.476 37.0956 128.798 39.8058L127.187 46.25H119.479L117.867 39.8058C117.19 37.0956 115.788 34.6205 113.813 32.645C111.837 30.6696 109.362 29.268 106.652 28.5902L100.208 26.9792V19.2708L106.652 17.6598C109.361 16.9807 111.834 15.5787 113.808 13.6033C115.782 11.6279 117.183 9.15346 117.86 6.44417L119.479 0H127.187L128.798 6.44417C129.476 9.15441 130.877 11.6295 132.853 13.605C134.828 15.5804 137.303 16.982 140.014 17.6598ZM178.555 56.2015L184.999 57.8125V65.5208L178.555 67.1319C175.845 67.8097 173.37 69.2112 171.394 71.1867C169.419 73.1621 168.017 75.6373 167.34 78.3475L165.729 84.7917H158.02L156.409 78.3475C155.731 75.6373 154.33 73.1621 152.354 71.1867C150.379 69.2112 147.904 67.8097 145.194 67.1319L138.749 65.5208V57.8125L145.194 56.2015C147.904 55.5236 150.379 54.1221 152.354 52.1467C154.33 50.1712 155.731 47.6961 156.409 44.9858L158.02 38.5417H165.729L167.34 44.9858C168.017 47.6961 169.419 50.1712 171.394 52.1467C173.37 54.1221 175.845 55.5236 178.555 56.2015Z" fill="black"/>
</svg>
