<svg width="24" height="24" viewBox="0 0 24 24" fill="none" xmlns="http://www.w3.org/2000/svg">
<path d="M19.9442 7.41624C19.9569 7.61005 19.9569 7.8039 19.9569 7.9977C19.9569 13.9091 15.8326 20.7204 8.29444 20.7204C5.97209 20.7204 3.81473 19.9866 2 18.713C2.32996 18.7545 2.64719 18.7684 2.98985 18.7684C4.90607 18.7684 6.67006 18.0624 8.0787 16.8579C6.27666 16.8164 4.7665 15.5289 4.24618 13.7568C4.50001 13.7983 4.7538 13.826 5.02032 13.826C5.38833 13.826 5.75638 13.7706 6.099 13.6738C4.22083 13.2584 2.81215 11.4587 2.81215 9.2852V9.22984C3.35782 9.5621 3.99239 9.76976 4.66493 9.79741C3.56087 8.99444 2.83754 7.6239 2.83754 6.07335C2.83754 5.24272 3.04055 4.4813 3.3959 3.81678C5.41369 6.53021 8.4467 8.30222 11.8477 8.49607C11.7843 8.16381 11.7462 7.81775 11.7462 7.47164C11.7462 5.00737 13.5736 3 15.8452 3C17.0254 3 18.0914 3.53992 18.8401 4.41209C19.7665 4.21829 20.6548 3.84448 21.4416 3.33226C21.137 4.37059 20.4898 5.24276 19.6396 5.79649C20.4645 5.69963 21.264 5.45038 22 5.10431C21.4417 5.9903 20.7437 6.77938 19.9442 7.41624Z" fill="white"/>
</svg>
