<svg width="493" height="495" viewBox="0 0 493 495" fill="none" xmlns="http://www.w3.org/2000/svg">
<path fill-rule="evenodd" clip-rule="evenodd" d="M359.576 490.408C315.295 497.437 269.052 494.641 225.81 484.811C194.194 477.694 166.195 465.138 142.105 450.359C51.9069 395.072 -2.11008 295.642 0.285268 189.371C0.91941 160.995 5.53442 130.499 16.5594 99.7855C31.7051 57.8529 97.5545 -27.8149 177.748 9.67455C257.87 47.0586 258.118 152.287 274.977 185.857C291.944 219.352 324.15 242.208 345.811 254.156C350.955 257.447 434.038 282.859 459.33 308.454C481.288 330.6 497.857 363.749 491.178 396.13C479.734 451.812 410.229 482.408 359.576 490.408Z" fill="url(#paint0_linear_273_147)"/>
<defs>
<linearGradient id="paint0_linear_273_147" x1="41.2039" y1="391.106" x2="374.832" y2="181.368" gradientUnits="userSpaceOnUse">
<stop stop-color="#6A4CA5"/>
<stop offset="0.3" stop-color="#7A5DCF"/>
<stop offset="0.65" stop-color="#8D71FF"/>
<stop offset="0.97" stop-color="#8C99FA"/>
</linearGradient>
</defs>
</svg>
